<svg width="87" height="89" viewBox="0 0 87 89" fill="none" xmlns="http://www.w3.org/2000/svg">
<path d="M0 71.6218L6.55995 33.6601H32.7998L30.9716 42.6935H14.8405L13.335 51.1891H29.466L27.8529 60.5451H11.7219L9.78616 71.6218H0Z" fill="#5DC08A"/>
<path d="M29.466 71.6218L35.8109 33.6601H45.4895L39.0371 71.6218H29.466Z" fill="#5DC08A"/>
<path d="M46.1347 42.6935L47.5328 33.6601H78.9345L77.2139 42.6935H66.6749L63.7713 51.1891L73.3424 48.0705L49.0383 88.6131L56.2435 63.0186L47.5328 65.8146L56.2435 42.6935H46.1347Z" fill="#5DC08A"/>
<path fill-rule="evenodd" clip-rule="evenodd" d="M7.20519 0L1.0754 32.3696H34.0902L36.241 29.0358H47.8554L48.7157 32.3696H58.0717L47.8554 0L25.3795 31.2942L26.7775 24.4116H11.5068L12.5822 21.0779H26.7775L28.3906 13.5501H14.1953L15.4858 7.74289H29.7886L31.6168 0H7.20519ZM58.0717 0L56.6737 7.74289H66.89L61.6205 32.3696H70.869L75.8158 7.74289H85.602L87 0H58.0717ZM44.7367 15.0556L40.8653 21.0779H46.3498L44.7367 15.0556Z" fill="#5DC08A"/>
</svg>
